<?xml version="1.0" encoding="utf-8"?>
<!-- Generator: Adobe Illustrator 25.4.1, SVG Export Plug-In . SVG Version: 6.00 Build 0)  -->
<svg version="1.1" id="图层_1" xmlns="http://www.w3.org/2000/svg" xmlns:xlink="http://www.w3.org/1999/xlink" x="0px" y="0px"
	 viewBox="0 0 512 512" style="enable-background:new 0 0 512 512;" xml:space="preserve">
<style type="text/css">
	.st0{fill:#F7B91C;}
	.st1{fill:#FFFFFF;}
	.st2{fill-rule:evenodd;clip-rule:evenodd;}
	.st3{fill:#FF0060;}
	.st4{fill:#FF6000;}
	.st5{fill:#FFC000;}
	.st6{fill:#DEFF00;}
	.st7{fill:#7EFF00;}
	.st8{fill:#1EFF00;}
	.st9{fill:#00FF42;}
	.st10{fill:#00FFA2;}
	.st11{fill:#00FCFF;}
	.st12{fill:#00A2FF;}
	.st13{fill:#0042FF;}
	.st14{fill:#1E00FF;}
	.st15{fill:#7E00FF;}
	.st16{fill:#DE00FF;}
	.st17{fill:#FF00C0;}
	.st18{fill:#FF0000;}
	.st19{fill:none;stroke:#000000;stroke-width:1;stroke-linejoin:round;stroke-miterlimit:5.774;}
	.st20{fill:none;stroke:#000000;stroke-width:1;stroke-miterlimit:5.774;}
	.st21{fill:#FF91E4;}
	.st22{fill:#FFBA91;}
	.st23{fill:#FF9191;}
	.st24{fill:#FF91BA;}
	.st25{fill:#370070;}
	.st26{fill:#620070;}
	.st27{fill:#700054;}
	.st28{fill:#70002A;}
	.st29{fill:#700000;}
	.st30{fill:#702A00;}
	.st31{fill:#705400;}
	.st32{fill:#627000;}
	.st33{fill:#377000;}
	.st34{fill:#0D7000;}
	.st35{fill:#00701D;}
	.st36{fill:#007047;}
	.st37{fill:#006F70;}
	.st38{fill:#004770;}
	.st39{fill:#001D70;}
	.st40{fill:#0D0070;}
	.st41{fill:#F191FF;}
	.st42{fill:#C791FF;}
	.st43{fill:#9E91FF;}
	.st44{fill:#91ADFF;}
	.st45{fill:#91D7FF;}
	.st46{fill:#91FEFF;}
	.st47{fill:#91FFD7;}
	.st48{fill:#91FFAD;}
	.st49{fill:#9EFF91;}
	.st50{fill:#C7FF91;}
	.st51{fill:#F1FF91;}
	.st52{fill:#FFE491;}
	.st53{fill:none;stroke:#000000;stroke-width:1.5;stroke-linejoin:round;stroke-miterlimit:5.774;}
	.st54{fill:none;stroke:#000000;stroke-width:1.5;stroke-miterlimit:5.774;}
	.st55{fill:#231815;}
	.st56{fill:#1A1A1A;}
	.st57{fill:#009FE8;}
	.st58{fill:#0085D0;}
	.st59{fill:#0068B6;}
	.st60{fill:#00469B;}
	.st61{fill:#1D2087;}
	.st62{fill:#5F1985;}
	.st63{fill:#910782;}
	.st64{fill:#BD0080;}
	.st65{fill:#E3007F;}
	.st66{fill:#E40069;}
	.st67{fill:#E4004F;}
	.st68{fill:#E50032;}
	.st69{fill:#E50012;}
	.st70{fill:#EA6000;}
	.st71{fill:#F29600;}
	.st72{fill:#FBC600;}
	.st73{fill:#FFF000;}
	.st74{fill:#CEDA00;}
	.st75{fill:#8DC21F;}
	.st76{fill:#1EAA39;}
	.st77{fill:#009844;}
	.st78{fill:#009A6B;}
	.st79{fill:#009D95;}
	.st80{fill:#009FC0;}
	.st81{fill:#0086C2;}
	.st82{fill:#0071AE;}
	.st83{fill:#005698;}
	.st84{fill:#003883;}
	.st85{fill:#161573;}
	.st86{fill:#4F0B71;}
	.st87{fill:#7A006E;}
	.st88{fill:#9D006B;}
	.st89{fill:#BD006A;}
	.st90{fill:#BD0057;}
	.st91{fill:#BD0040;}
	.st92{fill:#BD0027;}
	.st93{fill:#BE0008;}
	.st94{fill:#C24E00;}
	.st95{fill:#C87D00;}
	.st96{fill:#CEA400;}
	.st97{fill:#D4C600;}
	.st98{fill:#AAB500;}
	.st99{fill:#75A215;}
	.st100{fill:#138F2E;}
	.st101{fill:#008139;}
	.st102{fill:#008259;}
	.st103{fill:#00837E;}
	.st104{fill:#0085A1;}
	.st105{fill:#006794;}
	.st106{fill:#005586;}
	.st107{fill:#003F76;}
	.st108{fill:#002566;}
	.st109{fill:#080058;}
	.st110{fill:#3B0056;}
	.st111{fill:#5D0053;}
	.st112{fill:#790050;}
	.st113{fill:#90004F;}
	.st114{fill:#90003F;}
	.st115{fill:#8F002C;}
	.st116{fill:#8F0015;}
	.st117{fill:#900000;}
	.st118{fill:#923700;}
	.st119{fill:#975C00;}
	.st120{fill:#9B7C00;}
	.st121{fill:#9F9500;}
	.st122{fill:#808800;}
	.st123{fill:#567B03;}
	.st124{fill:#006E1D;}
	.st125{fill:#006428;}
	.st126{fill:#006442;}
	.st127{fill:#006560;}
	.st128{fill:#00677D;}
	.st129{fill:#004061;}
	.st130{fill:#003257;}
	.st131{fill:#00204C;}
	.st132{fill:#000640;}
	.st133{fill:#000036;}
	.st134{fill:#1F0035;}
	.st135{fill:#390032;}
	.st136{fill:#4E002F;}
	.st137{fill:#5F002D;}
	.st138{fill:#5E001F;}
	.st139{fill:#5E000E;}
	.st140{fill:#5E0000;}
	.st141{fill:#5D0000;}
	.st142{fill:#5F1900;}
	.st143{fill:#613600;}
	.st144{fill:#644C00;}
	.st145{fill:#675E00;}
	.st146{fill:#505600;}
	.st147{fill:#314D00;}
	.st148{fill:#004502;}
	.st149{fill:#003F0D;}
	.st150{fill:#003F25;}
	.st151{fill:#00403B;}
	.st152{fill:#00404F;}
	.st153{fill:#00459B;}
	.st154{fill:#FFFFFF;stroke:#CCCCCC;stroke-width:1.1743;}
	.st155{fill:#003782;}
	.st156{fill:#002465;}
	.st157{fill:#000540;}
	.st158{fill-rule:evenodd;clip-rule:evenodd;fill:#FAFAFA;}
	.st159{fill-rule:evenodd;clip-rule:evenodd;fill:#F5F5F5;}
	.st160{fill-rule:evenodd;clip-rule:evenodd;fill:#EEEEEE;}
	.st161{fill-rule:evenodd;clip-rule:evenodd;fill:#E0E0E0;}
	.st162{fill-rule:evenodd;clip-rule:evenodd;fill:#BDBDBD;}
	.st163{fill-rule:evenodd;clip-rule:evenodd;fill:#9E9E9E;}
	.st164{fill-rule:evenodd;clip-rule:evenodd;fill:#757575;}
	.st165{fill-rule:evenodd;clip-rule:evenodd;fill:#616161;}
	.st166{fill-rule:evenodd;clip-rule:evenodd;fill:#424242;}
	.st167{fill-rule:evenodd;clip-rule:evenodd;fill:#212121;}
	.st168{fill:#1F1C1D;}
	.st169{fill:#504E4E;}
	.st170{fill:#373536;}
	.st171{fill:#686767;}
	.st172{fill:#2B2929;}
	.st173{fill:#747474;}
	.st174{fill:#444242;}
	.st175{fill:#5C5B5B;}
	.st176{fill:#393536;}
	.st177{fill:#9C9A9B;}
	.st178{fill:#6A6868;}
	.st179{fill:#CDCDCD;}
	.st180{fill:#514F4F;}
	.st181{fill:#E6E6E6;}
	.st182{fill:#838182;}
	.st183{fill:#B5B3B4;}
	.st184{fill:#060203;}
	.st185{fill:#030102;}
	.st186{fill:#040202;}
	.st187{fill:#010101;}
	.st188{fill:#040203;}
	.st189{fill:#010000;}
	.st190{fill:#020101;}
	.st191{fill:#070304;}
	.st192{fill:#171717;}
	.st193{fill:#DF5B23;}
	.st194{fill:#EB5C20;}
	.st195{fill:#1E5D91;}
	.st196{fill:#E29227;}
	.st197{fill:#1C9965;}
	.st198{fill:#70BA33;}
	.st199{fill:#C6224E;}
	.st200{fill:#0E0304;}
	.st201{fill:#29292C;}
	.st202{fill:#B5B5B6;}
	.st203{fill:#2E3032;}
	.st204{fill:#1A1A1B;}
	.st205{fill:#757579;}
	.st206{fill:#2F2833;}
	.st207{fill:#403944;}
	.st208{fill:#CBCFD7;}
</style>
<g>
	<g>
		<g>
			<path class="st5" d="M330.03,483.53c1.24,3.69,0.28,7.78-2.52,10.46c-4.78,4.57-12.46,8.3-23.05,11.22
				c-14.61,4.03-30.34,6.27-47.16,6.71c-16.83,0.46-32.77-1.11-47.82-4.7c-10.98-2.6-19.13-6.16-24.46-10.67
				c-3.1-2.63-4.29-6.9-3.03-10.78l54.11-166.56c0.86-2.66,2.78-4.84,5.3-5.99c9.6-4.37,18.94-4.37,28.01-0.02
				c2.39,1.15,4.21,3.25,5.07,5.79L330.03,483.53z"/>
			<path class="st5" d="M182.03,28.47c-1.24-3.69-0.28-7.78,2.52-10.46c4.78-4.57,12.46-8.3,23.05-11.22
				c14.61-4.03,30.34-6.27,47.16-6.71c16.83-0.46,32.77,1.11,47.82,4.7c10.98,2.6,19.13,6.16,24.46,10.67
				c3.1,2.63,4.29,6.9,3.03,10.78l-54.11,166.56c-0.86,2.66-2.78,4.84-5.3,5.99c-9.6,4.37-18.94,4.37-28.01,0.02
				c-2.39-1.15-4.21-3.25-5.07-5.79L182.03,28.47z"/>
		</g>
	</g>
	<g>
		<g>
			<path class="st5" d="M416.05,78.15c2.57-2.92,6.6-4.13,10.32-3.04c6.34,1.85,13.42,6.64,21.24,14.35
				c10.79,10.64,20.6,23.14,29.39,37.48c8.82,14.35,15.43,28.94,19.84,43.76c3.24,10.81,4.24,19.65,2.99,26.51
				c-0.73,4-3.83,7.17-7.82,8.02l-171.3,36.42c-2.73,0.58-5.59,0.01-7.84-1.6c-8.58-6.13-13.26-14.22-14.02-24.25
				c-0.2-2.65,0.71-5.27,2.48-7.28L416.05,78.15z"/>
			<path class="st5" d="M95.95,433.85c-2.57,2.92-6.6,4.13-10.32,3.04c-6.34-1.85-13.42-6.64-21.24-14.35
				C53.6,411.9,43.79,399.4,35,385.06c-8.82-14.35-15.43-28.94-19.84-43.76c-3.24-10.81-4.24-19.65-2.99-26.51
				c0.73-4,3.83-7.17,7.82-8.02l171.3-36.42c2.73-0.58,5.59-0.01,7.84,1.6c8.58,6.13,13.26,14.22,14.02,24.25
				c0.2,2.65-0.71,5.27-2.48,7.28L95.95,433.85z"/>
		</g>
	</g>
	<g>
		<g>
			<path class="st5" d="M21.95,206.32c-3.82-0.77-6.88-3.65-7.8-7.42c-1.57-6.42-0.96-14.94,1.81-25.57
				c3.82-14.67,9.74-29.41,17.77-44.19c8.02-14.81,17.35-27.83,27.98-39.07c7.74-8.21,14.9-13.49,21.47-15.85
				c3.82-1.37,8.12-0.27,10.85,2.76l117.19,130.14c1.87,2.07,2.8,4.83,2.54,7.59c-1.02,10.5-5.68,18.59-13.99,24.27
				c-2.19,1.5-4.92,2.02-7.55,1.49L21.95,206.32z"/>
			<path class="st5" d="M490.05,305.68c3.82,0.77,6.88,3.65,7.8,7.42c1.57,6.42,0.96,14.94-1.81,25.57
				c-3.82,14.67-9.74,29.41-17.77,44.19c-8.02,14.81-17.35,27.83-27.98,39.07c-7.74,8.21-14.9,13.49-21.47,15.85
				c-3.82,1.37-8.12,0.27-10.85-2.76L300.78,304.87c-1.87-2.07-2.8-4.83-2.54-7.59c1.02-10.5,5.68-18.59,13.99-24.27
				c2.19-1.5,4.92-2.02,7.55-1.49L490.05,305.68z"/>
		</g>
	</g>
</g>
</svg>
