<svg id="图层_1" data-name="图层 1" xmlns="http://www.w3.org/2000/svg" viewBox="0 0 512 512"><defs><style>.cls-1{fill:#fff;}.cls-2{fill:#010101;}</style></defs><circle class="cls-1" cx="256" cy="256" r="256"/><path class="cls-2" d="M333.52,364.47H277.3a2.32,2.32,0,0,1-2.09-1.32L257,324.78a1.16,1.16,0,0,0-2.08,0l-18.17,38.37a2.32,2.32,0,0,1-2.09,1.32H178.48a2.31,2.31,0,0,1-2.09-1.32l-101.27-214a1.15,1.15,0,0,1,1-1.65h59.67a2.29,2.29,0,0,1,2.11,1.4l55.79,129,15.45,34.16a1.15,1.15,0,0,0,2.11,0l18.78-44a2.33,2.33,0,0,0,0-1.85l-52.5-117a1.16,1.16,0,0,1,1.05-1.63h49.57a2.32,2.32,0,0,1,2.14,1.44L256,211.82,281.68,149a2.32,2.32,0,0,1,2.14-1.44h49.56a1.16,1.16,0,0,1,1.06,1.63l-52.68,117a2.29,2.29,0,0,0,0,1.85L300.7,312.1a1.15,1.15,0,0,0,2.11,0L318.27,278l55.79-129a2.29,2.29,0,0,1,2.11-1.4h59.67a1.15,1.15,0,0,1,1,1.65l-101.27,214A2.31,2.31,0,0,1,333.52,364.47Z"/></svg>