<?xml version="1.0" encoding="utf-8"?>
<!-- Generator: Adobe Illustrator 25.4.1, SVG Export Plug-In . SVG Version: 6.00 Build 0)  -->
<svg version="1.1" id="图层_1" xmlns="http://www.w3.org/2000/svg" xmlns:xlink="http://www.w3.org/1999/xlink" x="0px" y="0px"
	 viewBox="0 0 512 224.17" style="enable-background:new 0 0 512 224.17;" xml:space="preserve">
<style type="text/css">
	.st0{fill:#FFC000;}
</style>
<g>
	<g>
		<path class="st0" d="M174.41,31.3l-52.18,129.17c-0.42,1.04-1.43,1.73-2.56,1.73H91.02c-1.42,0-2.61-1.07-2.75-2.49l-7.8-78.04
			c-0.14-1.45-2.14-1.72-2.66-0.36L47.2,160.43c-0.41,1.06-1.43,1.76-2.57,1.76H17.1c-1.4,0-2.58-1.05-2.74-2.45L-0.2,30.94
			c-0.09-0.82,0.55-1.53,1.37-1.53h30.41c1.44,0,2.64,1.11,2.75,2.55l6.08,80.77c0.11,1.48,2.16,1.76,2.67,0.37l30.15-81.89
			c0.4-1.09,1.43-1.81,2.59-1.81h25.7c0.71,0,1.31,0.54,1.37,1.25l7.55,82.04c0.14,1.48,2.19,1.73,2.68,0.33l28.4-81.77
			c0.39-1.11,1.43-1.85,2.61-1.85h29C174.11,29.4,174.78,30.39,174.41,31.3z"/>
		<path class="st0" d="M259.2,149.47c0-1.17-1.37-1.82-2.26-1.06c-13.46,11.44-26.59,17.16-39.38,17.16
			c-19.51,0-30.63-12.13-33.38-36.39c-1-8.5-0.63-19.07,1.12-31.7c1.75-12.63,4.75-23.44,9-32.45c4.25-9,9.25-16.38,15.01-22.13
			c10.75-10.5,24.13-15.75,40.14-15.75c18.57,0,37.27,1.79,56.09,5.38c0.73,0.14,1.22,0.83,1.11,1.56L288.63,161
			c-0.1,0.68-0.68,1.19-1.37,1.19h-26.68c-0.76,0-1.38-0.62-1.38-1.38V149.47z M268.39,55.95c0.11-0.77-0.45-1.49-1.22-1.56
			c-4.3-0.4-9.7-0.61-16.22-0.61c-7.26,0-13.32,3-18.19,9c-4.88,6-8.38,16.82-10.5,32.45c-2.13,15.63-2.01,26.32,0.38,32.07
			c2.37,5.75,7.06,8.63,14.07,8.63c4.25,0,8.44-1.31,12.56-3.94c4.13-2.63,7.44-5.44,9.94-8.44L268.39,55.95z"/>
		<path class="st0" d="M325.96,193.95c0.21-0.75,1.01-1.17,1.75-0.93c10.77,3.45,21.19,5.18,31.27,5.18c7.5,0,12.38-1,14.63-3
			c4.75-4.26,8-11.38,9.75-21.38l4.5-28.51h-0.75c-13.26,13.26-26.26,19.88-39.01,19.88s-21.14-3.81-25.13-11.44
			c-4-7.63-5-19.32-3-35.07l12.42-86.91c0.19-1.36,1.36-2.37,2.73-2.37h31.27c0.84,0,1.49,0.75,1.37,1.58l-11.4,79.07
			c-1,10.5-1.13,16.88-0.38,19.13c1.75,3.75,5.25,5.63,10.5,5.63c6,0,12.88-3.62,20.63-10.88c1.29-1.11,2.38-2.01,3.26-2.71
			c0.56-0.44,0.92-1.07,1.02-1.78l12.43-88.85c0.1-0.68,0.68-1.19,1.37-1.19h32.1c0.84,0,1.48,0.74,1.37,1.57l-20.03,142.09
			c-2.5,17.5-8.25,30.44-17.26,38.82c-9,8.38-22.26,12.57-39.76,12.57c-11.92,0-25.5-2.49-40.74-7.46c-0.7-0.23-1.11-0.98-0.91-1.7
			L325.96,193.95z"/>
	</g>
	<g>
		<g>
			<g>
				<path class="st0" d="M492.55,54.9c0.14,0.42,0.03,0.88-0.29,1.18c-0.54,0.52-1.41,0.94-2.6,1.27c-1.65,0.45-3.43,0.71-5.33,0.76
					c-1.9,0.05-3.7-0.13-5.4-0.53c-1.24-0.29-2.16-0.7-2.76-1.21c-0.35-0.3-0.48-0.78-0.34-1.22l6.11-18.81
					c0.1-0.3,0.31-0.55,0.6-0.68c1.08-0.49,2.14-0.49,3.16,0c0.27,0.13,0.48,0.37,0.57,0.65L492.55,54.9z"/>
				<path class="st0" d="M475.83,3.5c-0.14-0.42-0.03-0.88,0.29-1.18c0.54-0.52,1.41-0.94,2.6-1.27c1.65-0.45,3.43-0.71,5.33-0.76
					c1.9-0.05,3.7,0.13,5.4,0.53c1.24,0.29,2.16,0.7,2.76,1.21c0.35,0.3,0.48,0.78,0.34,1.22l-6.11,18.81
					c-0.1,0.3-0.31,0.55-0.6,0.68c-1.08,0.49-2.14,0.49-3.16,0c-0.27-0.13-0.48-0.37-0.57-0.65L475.83,3.5z"/>
			</g>
		</g>
		<g>
			<g>
				<path class="st0" d="M502.27,9.11c0.29-0.33,0.75-0.47,1.17-0.34c0.72,0.21,1.52,0.75,2.4,1.62c1.22,1.2,2.33,2.61,3.32,4.23
					c1,1.62,1.74,3.27,2.24,4.94c0.37,1.22,0.48,2.22,0.34,2.99c-0.08,0.45-0.43,0.81-0.88,0.91l-19.35,4.11
					c-0.31,0.07-0.63,0-0.89-0.18c-0.97-0.69-1.5-1.61-1.58-2.74c-0.02-0.3,0.08-0.6,0.28-0.82L502.27,9.11z"/>
				<path class="st0" d="M466.11,49.29c-0.29,0.33-0.75,0.47-1.17,0.34c-0.72-0.21-1.52-0.75-2.4-1.62
					c-1.22-1.2-2.33-2.61-3.32-4.23c-1-1.62-1.74-3.27-2.24-4.94c-0.37-1.22-0.48-2.22-0.34-2.99c0.08-0.45,0.43-0.81,0.88-0.91
					l19.35-4.11c0.31-0.07,0.63,0,0.89,0.18c0.97,0.69,1.5,1.61,1.58,2.74c0.02,0.3-0.08,0.6-0.28,0.82L466.11,49.29z"/>
			</g>
		</g>
		<g>
			<g>
				<path class="st0" d="M457.75,23.59c-0.43-0.09-0.78-0.41-0.88-0.84c-0.18-0.73-0.11-1.69,0.2-2.89c0.43-1.66,1.1-3.32,2.01-4.99
					c0.91-1.67,1.96-3.14,3.16-4.41c0.87-0.93,1.68-1.52,2.42-1.79c0.43-0.15,0.92-0.03,1.23,0.31l13.24,14.7
					c0.21,0.23,0.32,0.55,0.29,0.86c-0.12,1.19-0.64,2.1-1.58,2.74c-0.25,0.17-0.56,0.23-0.85,0.17L457.75,23.59z"/>
				<path class="st0" d="M510.63,34.81c0.43,0.09,0.78,0.41,0.88,0.84c0.18,0.73,0.11,1.69-0.2,2.89c-0.43,1.66-1.1,3.32-2.01,4.99
					c-0.91,1.67-1.96,3.14-3.16,4.41c-0.87,0.93-1.68,1.52-2.42,1.79c-0.43,0.15-0.92,0.03-1.23-0.31l-13.24-14.7
					c-0.21-0.23-0.32-0.55-0.29-0.86c0.12-1.19,0.64-2.1,1.58-2.74c0.25-0.17,0.56-0.23,0.85-0.17L510.63,34.81z"/>
			</g>
		</g>
	</g>
</g>
</svg>
