<svg id="图层_1" data-name="图层 1" xmlns="http://www.w3.org/2000/svg" viewBox="0 0 512 512"><defs><style>.cls-1{fill:#ffc000;}.cls-2{fill:#171717;}</style></defs><rect class="cls-1" y="2.61" width="512" height="506.78"/><path class="cls-2" d="M191.75,199.18l-37.81,93.59a2,2,0,0,1-1.85,1.26H131.32a2,2,0,0,1-2-1.81l-5.65-56.55a1,1,0,0,0-1.93-.26L99.57,292.75A2,2,0,0,1,97.7,294h-20a2,2,0,0,1-2-1.78L65.22,198.91a1,1,0,0,1,1-1.11h22a2,2,0,0,1,2,1.85l4.41,58.53a1,1,0,0,0,1.93.27l21.85-59.34a2,2,0,0,1,1.88-1.31h18.62a1,1,0,0,1,1,.91l5.47,59.45a1,1,0,0,0,1.94.24l20.58-59.25a2,2,0,0,1,1.89-1.35h21A1,1,0,0,1,191.75,199.18Z"/><path class="cls-2" d="M253.19,284.81a1,1,0,0,0-1.64-.77Q236.93,296.47,223,296.47q-21.21,0-24.19-26.36-1.1-9.24.81-23a81.06,81.06,0,0,1,6.53-23.52,56.36,56.36,0,0,1,10.87-16q11.69-11.42,29.08-11.42a216.69,216.69,0,0,1,40.65,3.9,1,1,0,0,1,.81,1.13l-13.07,92a1,1,0,0,1-1,.86H254.19a1,1,0,0,1-1-1ZM259.85,217a1,1,0,0,0-.89-1.13q-4.66-.43-11.75-.44A16.32,16.32,0,0,0,234,222q-5.31,6.52-7.61,23.52t.27,23.24q2.58,6.25,10.19,6.25a16.76,16.76,0,0,0,9.11-2.86,30.74,30.74,0,0,0,7.2-6.11Z"/><path class="cls-2" d="M301.56,317a1,1,0,0,1,1.27-.67,74.17,74.17,0,0,0,22.66,3.75q8.16,0,10.6-2.17,5.16-4.63,7.07-15.5l3.26-20.66h-.54q-14.42,14.41-28.27,14.41t-18.21-8.29q-4.35-8.3-2.18-25.42l9-63a2,2,0,0,1,2-1.72h22.66a1,1,0,0,1,1,1.14l-8.26,57.3q-1.09,11.42-.27,13.87,1.89,4.06,7.61,4.07,6.52,0,14.95-7.88c.93-.8,1.72-1.46,2.37-2a2,2,0,0,0,.73-1.28l9-64.39a1,1,0,0,1,1-.86h23.26a1,1,0,0,1,1,1.14l-14.52,103q-2.71,19-12.5,28.13t-28.81,9.11q-13,0-29.53-5.41a1,1,0,0,1-.66-1.23Z"/><path class="cls-2" d="M430.2,220.07a1,1,0,0,1-.25,1,5.37,5.37,0,0,1-2.28,1.1,20.06,20.06,0,0,1-4.65.66,18.59,18.59,0,0,1-4.72-.46,5.78,5.78,0,0,1-2.41-1,1,1,0,0,1-.3-1.05L420.93,204a1,1,0,0,1,.52-.59,3.13,3.13,0,0,1,2.77,0,1,1,0,0,1,.5.56Z"/><path class="cls-2" d="M415.59,175.63a1,1,0,0,1,.25-1,5.37,5.37,0,0,1,2.28-1.09,19,19,0,0,1,4.65-.66,18.59,18.59,0,0,1,4.72.46,5.78,5.78,0,0,1,2.41,1,1,1,0,0,1,.3,1l-5.34,16.27a.93.93,0,0,1-.52.58,3.17,3.17,0,0,1-2.77,0,1,1,0,0,1-.5-.57Z"/><path class="cls-2" d="M407.3,215.29a1,1,0,0,1-1,.29,5.36,5.36,0,0,1-2.09-1.42,19.84,19.84,0,0,1-2.89-3.7,18.45,18.45,0,0,1-2-4.32,5.86,5.86,0,0,1-.31-2.61,1,1,0,0,1,.77-.78l16.75-3.51a1,1,0,0,1,.77.16,3.14,3.14,0,0,1,1.38,2.39,1,1,0,0,1-.24.72Z"/><path class="cls-2" d="M438.48,180.42a1,1,0,0,1,1-.3,5.41,5.41,0,0,1,2.09,1.43,19.12,19.12,0,0,1,2.89,3.7,17.81,17.81,0,0,1,2,4.31,5.74,5.74,0,0,1,.31,2.61,1,1,0,0,1-.76.79l-16.76,3.51a1,1,0,0,1-.77-.16,3.17,3.17,0,0,1-1.38-2.39,1,1,0,0,1,.24-.72Z"/><path class="cls-2" d="M445.79,202.64a1,1,0,0,1,.76.73,5.43,5.43,0,0,1-.19,2.51,19.63,19.63,0,0,1-1.76,4.36,18.15,18.15,0,0,1-2.76,3.86,5.88,5.88,0,0,1-2.11,1.57,1,1,0,0,1-1.06-.27l-11.42-12.76a1,1,0,0,1-.24-.74,3.12,3.12,0,0,1,1.38-2.4,1,1,0,0,1,.74-.15Z"/><path class="cls-2" d="M400,193.07a1,1,0,0,1-.76-.73,5.34,5.34,0,0,1,.19-2.52,19.51,19.51,0,0,1,1.75-4.35,18.62,18.62,0,0,1,2.76-3.86,5.84,5.84,0,0,1,2.11-1.57,1,1,0,0,1,1.06.27l11.42,12.75a1,1,0,0,1,.24.75,3.12,3.12,0,0,1-1.38,2.39,1,1,0,0,1-.74.15Z"/></svg>