<?xml version="1.0" encoding="utf-8"?>
<!-- Generator: Adobe Illustrator 26.4.1, SVG Export Plug-In . SVG Version: 6.00 Build 0)  -->
<svg version="1.1" id="图层_1" xmlns="http://www.w3.org/2000/svg" xmlns:xlink="http://www.w3.org/1999/xlink"
	 viewBox="0 0 496 160" xml:space="preserve">
<style type="text/css">
	.st0{fill:#FFFFFF;}
	.st1{fill:#020202;}
</style>
<g>
	<g>
		<circle class="st0" cx="80.32" cy="80" r="80"/>
		<path class="st1" d="M104.55,113.9H86.98c-0.28,0-0.53-0.16-0.65-0.41l-5.68-11.99c-0.13-0.27-0.52-0.27-0.65,0l-5.68,11.99
			c-0.12,0.25-0.37,0.41-0.65,0.41H56.1c-0.28,0-0.53-0.16-0.65-0.41L23.8,46.62c-0.11-0.24,0.06-0.51,0.33-0.51h18.65
			c0.29,0,0.55,0.17,0.66,0.43l17.43,40.32l4.83,10.68c0.13,0.29,0.54,0.28,0.66-0.01l5.87-13.77c0.08-0.18,0.08-0.39-0.01-0.58
			l-16.4-36.57c-0.11-0.24,0.07-0.51,0.33-0.51h15.49c0.29,0,0.56,0.18,0.67,0.45l8.03,19.64l8.03-19.64
			c0.11-0.27,0.37-0.45,0.67-0.45h15.49c0.26,0,0.44,0.27,0.33,0.51L88.37,83.18c-0.08,0.18-0.08,0.39,0,0.58l5.92,13.77
			c0.12,0.29,0.53,0.29,0.66,0.01l4.83-10.68l17.43-40.32c0.11-0.26,0.37-0.43,0.66-0.43h18.65c0.26,0,0.44,0.28,0.33,0.51
			l-31.65,66.86C105.08,113.73,104.83,113.9,104.55,113.9z"/>
	</g>
	<g>
		<path class="st0" d="M312.99,35l-23.46,90h-26.54l-14.36-59.23L233.75,125h-26.54L184.4,35h23.46l12.95,65.51L236.83,35h24.1
			l15.38,65.51L289.4,35H312.99z"/>
		<path class="st0" d="M380.04,109.1h-33.59l-5.38,15.9h-22.95l32.56-90h25.38l32.56,90h-23.21L380.04,109.1z M374.39,92.18
			l-11.15-32.95l-11.03,32.95H374.39z"/>
		<path class="st0" d="M495.68,35l-31.15,60.26V125H442.6V95.26L411.45,35h24.87l17.44,37.69L471.06,35H495.68z"/>
	</g>
</g>
</svg>
